<?xml version="1.0" encoding="utf-8"?>
<svg style="enable-background:new 0 0 350 350;" id="레이어_1" version="1.1" viewBox="0 0 350 350"
	x="0px" xmlns="http://www.w3.org/2000/svg" y="0px" xml:space="preserve">
<g fill="#fff" id="White-Logo-Square">
	<path d="M179,82.5c15.1,0,33.9-10.5,45.2-24.5c10.2-12.7,17.6-30.4,17.6-48.1c0-2.4-0.2-4.8-0.6-6.8
		c-16.8,0.7-36.9,11.6-49,26.2c-9.5,11.1-18.2,28.6-18.2,46.6c0,2.6,0.4,5.2,0.6,6.1C175.6,82.3,177.3,82.5,179,82.5z M126,347
		c20.6,0,29.7-14.2,55.4-14.2c26.1,0,31.8,13.8,54.7,13.8c22.5,0,37.5-21.4,51.7-42.4c15.9-24,22.5-47.7,22.9-48.7
		c-1.5-0.4-44.5-18.6-44.5-69.5c0-44.2,33.9-64,35.8-65.6c-22.5-33.2-56.6-34.1-66-34.1c-25.2,0-45.8,15.7-58.7,15.7
		c-14,0-32.4-14.9-54.3-14.9c-41.6,0-83.8,35.4-83.8,102.3c0,41.5,15.7,85.5,35,113.9C90.8,327.3,105.2,347,126,347z"
		id="_xF8FF_" />
</g>
</svg>
