<svg fill="none" height="61" viewBox="0 0 74 61" width="74" xmlns="http://www.w3.org/2000/svg">
    <path
        d="M68.0749 57.69L7.24322 60.9971C6.32035 61.0342 5.41953 60.7091 4.73302 60.0913C4.0465 59.4734 3.62867 58.6117 3.56869 57.69L0.00440524 6.24671C-0.0194414 5.76381 0.0537054 5.28102 0.219527 4.82686C0.385349 4.37269 0.640482 3.95635 0.969867 3.60242C1.29925 3.24848 1.69622 2.96413 2.13731 2.76615C2.57841 2.56817 3.0547 2.46057 3.53807 2.44971L64.3759 2.83553C65.2821 2.81979 66.1592 3.15528 66.8236 3.77172C67.488 4.38817 67.8882 5.23777 67.9402 6.1426L71.5167 53.8685C71.5482 54.3469 71.4835 54.8267 71.3264 55.2796C71.1694 55.7326 70.9232 56.1495 70.6024 56.5057C70.2815 56.8619 69.8926 57.1502 69.4585 57.3536C69.0244 57.5571 68.554 57.6714 68.0749 57.69V57.69Z"
        fill="#C1C3C5" />
    <path
        d="M70.5222 55.2403L9.69048 58.5474C8.76762 58.5845 7.8668 58.2594 7.18028 57.6416C6.49377 57.0237 6.07593 56.162 6.01596 55.2403L2.45167 3.79701C2.42782 3.3141 2.50097 2.83131 2.66679 2.37715C2.83261 1.92298 3.08775 1.50664 3.41713 1.15271C3.74652 0.798776 4.14348 0.514425 4.58458 0.316443C5.02568 0.11846 5.50197 0.0108648 5.98534 0L66.8232 0.385819C67.7294 0.370087 68.6065 0.705571 69.2709 1.32202C69.9353 1.93846 70.3354 2.78807 70.3875 3.6929L73.964 51.4188C73.9955 51.8972 73.9308 52.377 73.7737 52.8299C73.6167 53.2829 73.3705 53.6998 73.0496 54.056C72.7288 54.4122 72.3399 54.7005 71.9058 54.9039C71.4717 55.1074 71.0012 55.2217 70.5222 55.2403V55.2403Z"
        fill="#DBDDE0" />
    <path
        d="M23.694 25.5195L15.4202 25.6481C15.0417 25.6289 14.6818 25.4784 14.4023 25.2224C14.1228 24.9664 13.9414 24.621 13.8891 24.2457L13.2767 15.5922C13.2681 15.3896 13.3016 15.1874 13.3751 14.9985C13.4487 14.8096 13.5607 14.638 13.7041 14.4946C13.8475 14.3513 14.0191 14.2392 14.208 14.1657C14.3969 14.0921 14.5991 14.0586 14.8017 14.0673H23.0755C23.452 14.0876 23.8098 14.2378 24.0878 14.4925C24.3659 14.7471 24.5471 15.0903 24.6004 15.4636L25.2128 23.9946C25.1644 24.3811 24.989 24.7407 24.7141 25.0167C24.4392 25.2927 24.0804 25.4696 23.694 25.5195V25.5195Z"
        fill="#FFC868" />
    <path
        d="M24.9167 24.2944L16.6429 24.423C16.2644 24.4038 15.9044 24.2533 15.625 23.9973C15.3455 23.7414 15.164 23.3959 15.1118 23.0206L14.4994 14.3671C14.4907 14.1645 14.5242 13.9624 14.5978 13.7734C14.6714 13.5845 14.7834 13.4129 14.9268 13.2695C15.0701 13.1262 15.2417 13.0141 15.4306 12.9406C15.6196 12.867 15.8217 12.8335 16.0243 12.8422H24.2981C24.6746 12.8625 25.0324 13.0127 25.3105 13.2674C25.5886 13.522 25.7697 13.8652 25.823 14.2385L26.4355 22.7695C26.3871 23.156 26.2117 23.5156 25.9368 23.7916C25.6618 24.0676 25.303 24.2445 24.9167 24.2944V24.2944Z"
        fill="#FFA913" />
    <path d="M32.5957 14.0671L61.2325 13.9385" stroke="#63737A" stroke-linecap="round"
        stroke-linejoin="round" stroke-width="3.74" />
    <path d="M33.1113 21.4472L61.742 21.1899" stroke="#63737A" stroke-linecap="round"
        stroke-linejoin="round" stroke-width="3.74" />
    <path
        d="M25.0876 45.2454L16.8138 45.5026C16.4301 45.5025 16.0605 45.3582 15.7781 45.0985C15.4957 44.8388 15.3211 44.4825 15.2888 44.1002L14.6764 35.4467C14.6648 35.2537 14.6923 35.0603 14.7571 34.8781C14.8219 34.6959 14.9228 34.5286 15.0537 34.3863C15.1846 34.244 15.3428 34.1295 15.519 34.0497C15.6951 33.9699 15.8855 33.9264 16.0789 33.9218L24.3527 33.6646C24.7301 33.6851 25.0886 33.8363 25.3668 34.0921C25.645 34.348 25.8256 34.6926 25.8776 35.067L26.49 43.5919C26.5143 43.9951 26.382 44.3921 26.1207 44.7002C25.8594 45.0082 25.4893 45.2035 25.0876 45.2454Z"
        fill="#FFC868" />
    <path
        d="M26.3161 44.0208L18.0423 44.278C17.6586 44.2778 17.289 44.1336 17.0066 43.8739C16.7242 43.6142 16.5496 43.2579 16.5173 42.8756L15.9049 34.2221C15.8933 34.029 15.9208 33.8357 15.9856 33.6535C16.0504 33.4713 16.1513 33.304 16.2822 33.1617C16.4131 33.0194 16.5714 32.9049 16.7475 32.8251C16.9236 32.7453 17.114 32.7017 17.3074 32.6972L25.5812 32.4399C25.9586 32.4605 26.3171 32.6117 26.5953 32.8675C26.8735 33.1234 27.0541 33.468 27.1061 33.8424L27.7185 42.3673C27.7428 42.7705 27.6105 43.1675 27.3492 43.4756C27.0879 43.7836 26.7178 43.9789 26.3161 44.0208Z"
        fill="#FFA913" />
    <path d="M34.0039 33.5363L62.6407 32.7769" stroke="#63737A" stroke-linecap="round"
        stroke-linejoin="round" stroke-width="3.74" />
    <path d="M34.5078 41.0443L63.1446 40.1562" stroke="#63737A" stroke-linecap="round"
        stroke-linejoin="round" stroke-width="3.74" />
    <path d="M17.7617 15.8681L21.2857 19.5975L26.3356 12.8608" stroke="#6DAFA7"
        stroke-linecap="round" stroke-linejoin="round" stroke-width="4" />
    <path d="M18.9844 35.4658L22.5084 39.1951L27.5583 32.4585" stroke="#6DAFA7"
        stroke-linecap="round" stroke-linejoin="round" stroke-width="4" />
</svg>
