<?xml version="1.0" encoding="utf-8"?>
<svg style="enable-background:new 0 0 350 350;" id="레이어_2" version="1.1" viewBox="0 0 350 350"
	x="0px" xmlns="http://www.w3.org/2000/svg" y="0px" xml:space="preserve">
<g id="logo_googleg_48dp" transform="translate(15.000000, 15.000000)">
	<g fill="#4285F4" id="st0">
		<path class="st0" d="M321.3,163.6c0-11.9-1.1-23.4-3.1-34.4H159.9v65h90.5c-3.9,21-15.7,38.8-33.5,50.7v42.2h54.3
		C302.9,257.9,321.3,214.8,321.3,163.6L321.3,163.6z" id="Shape" />
	</g>
	<g fill="#34A853" id="st1">
		<path class="st1" d="M159.9,327.9c45.4,0,83.4-15.1,111.3-40.7
		L216.8,245c-15.1,10.1-34.3,16-56.9,16c-43.8,0-80.8-29.6-94.1-69.3H9.6v43.6C37.3,290.2,94.2,327.9,159.9,327.9L159.9,327.9z"
			id="Shape_00000148639657316652476880000011226448977034299065_" />
	</g>
	<g fill="#FBBC05" id="st2">
		<path class="st2" d="M65.8,191.7c-3.4-10.1-5.3-20.9-5.3-31.9
		s1.9-21.9,5.3-31.9V84.3H9.6C-1.7,107-8.2,132.6-8.2,159.8s6.5,52.8,17.9,75.5L65.8,191.7L65.8,191.7z"
			id="Shape_00000137090632532442125040000005438385965529805233_" />
	</g>
	<g fill="#EA4335" id="st3">
		<path class="st3" d="M159.9,58.5c24.7,0,46.8,8.5,64.3,25.1
		l48.2-48.2C243.3,8.3,205.2-8.3,159.9-8.3C94.2-8.3,37.3,29.3,9.6,84.3l56.2,43.6C79,88.1,116.1,58.5,159.9,58.5L159.9,58.5z"
			id="Shape_00000183244301452793299100000009604779032452017587_" />
	</g>
</g>
</svg>
