<svg fill="none" height="73" viewBox="0 0 74 73" width="74" xmlns="http://www.w3.org/2000/svg">
    <path
        d="M58.8464 58.3909C43.0106 73.7378 23.3343 76.7693 16.2046 66.2065C9.89714 56.8751 15.8616 40.2871 28.7512 28.29C41.4342 16.4975 58.1605 11.63 67.2133 17.8692C77.4257 24.8549 74.4093 43.3035 58.8464 58.3909Z"
        fill="#C1C3C5" />
    <path
        d="M56.5846 56.0548C40.7489 71.4113 21.0725 74.4333 13.9428 63.8704C7.63543 54.5467 13.5999 37.9568 26.4894 25.9577C39.1725 14.1671 55.8988 9.29967 64.9516 15.537C75.2321 22.5985 72.1476 41.0413 56.5846 56.0548Z"
        fill="#DBDDE0" />
    <path
        d="M49.9342 49.4041C40.4058 58.5232 28.4769 60.7855 23.6776 54.6827C19.2895 49.0612 22.7871 38.4358 31.1503 30.6202C39.4452 22.8728 50.2089 19.9247 55.7622 24.3128C61.7267 28.9756 59.328 40.3551 49.9342 49.4041Z"
        fill="#F0C67B" />
    <path
        d="M43.8329 43.3032C40.0625 46.8671 35.2632 47.8959 33.2075 45.6337C31.2181 43.4396 32.5216 38.9833 36.0855 35.624C39.6494 32.2648 44.2441 31.1677 46.4381 33.161C48.7004 35.1447 47.6033 39.7374 43.8329 43.3032Z"
        fill="#EEA72B" />
    <path
        d="M19.4959 20.2681C19.1497 20.5888 18.7437 20.838 18.301 21.0013C17.8584 21.1647 17.3878 21.239 16.9164 21.22C16.4449 21.201 15.9818 21.089 15.5538 20.8905C15.1257 20.6921 14.741 20.411 14.4219 20.0635L2.21821 4.50056C1.9152 4.10859 1.76856 3.61806 1.80672 3.12409C1.84488 2.63013 2.06512 2.16794 2.42473 1.82716V1.82716C2.79114 1.4959 3.26749 1.3125 3.76143 1.3125C4.25538 1.3125 4.73173 1.4959 5.09813 1.82716L19.6323 15.1923C19.9728 15.5257 20.2409 15.9259 20.4197 16.3677C20.5984 16.8095 20.6841 17.2835 20.6713 17.76C20.6585 18.2364 20.5475 18.7051 20.3452 19.1367C20.143 19.5683 19.8538 19.9534 19.4959 20.2681V20.2681Z"
        fill="#63737A" />
    <path
        d="M5.03015 7.44862L1.12331 7.99239C0.0262854 8.1307 -0.392441 9.50814 0.437432 10.1864C2.83868 12.3035 5.78279 13.709 8.93889 14.2449L10.9264 14.5878C10.9782 14.5974 11.0316 14.5916 11.0801 14.5712C11.1286 14.5507 11.17 14.5165 11.1993 14.4728C11.2285 14.429 11.2443 14.3776 11.2446 14.325C11.2449 14.2724 11.2298 14.2208 11.2011 14.1766L6.26359 7.92797C6.1118 7.75465 5.92038 7.62055 5.70563 7.53709C5.49088 7.45363 5.25915 7.42328 5.03015 7.44862V7.44862Z"
        fill="#E9990D" />
    <path
        d="M7.90935 4.84332L8.79796 1.00468C8.84977 0.764545 8.96995 0.544525 9.144 0.371155C9.31805 0.197785 9.53854 0.0784704 9.77888 0.0275985C10.0192 -0.0232734 10.2691 -0.00352944 10.4985 0.0844493C10.7279 0.172428 10.9269 0.324884 11.0716 0.523433V0.523433C12.9969 3.07248 14.1586 6.11599 14.4214 9.29962L14.5597 11.2871C14.5585 11.3346 14.5445 11.3808 14.519 11.4209C14.4936 11.4609 14.4577 11.4933 14.4152 11.5145C14.3728 11.5358 14.3254 11.545 14.2781 11.5414C14.2307 11.5377 14.1853 11.5212 14.1467 11.4937L8.3205 6.14497C7.90935 5.73382 7.77104 5.25446 7.90935 4.84332Z"
        fill="#E9990D" />
    <path d="M18.9453 19.6523L22.8541 23.8339" stroke="#63737A" stroke-linecap="round"
        stroke-linejoin="round" stroke-width="2" />
</svg>
