<svg id="ic_workbook" shape-rendering="geometricPrecision" text-rendering="geometricPrecision"
    viewBox="0 0 174 136" xmlns="http://www.w3.org/2000/svg">
    <g id="ic_workbook-s-g1" transform="translate(.000001 0.000001)">
        <path
            d="M102.707,39.7021c0,0-1.494,1.4946,1.282,12.828c2.777,11.3333,9.088,19.9891,9.088,19.9891c2.473-2.3453,4.295-5.2921,5.289-8.5525.993-3.2603,1.123-6.7225.378-10.0483-2.366-11.7725-16.037-14.2163-16.037-14.2163Z"
            fill="#22272e" id="ic_workbook-s-path1" />
        <path
            d="M104.298,73.0542c0,0-2.125.641-7.1611,5.8792-5.0362,5.2381-12.3957,7.9085-21.1648,11.8646-8.769,3.956-13.0438-14.4323-10.7984-23.7292c2.125-9.3004,11.7582-15.7144,11.7582-15.7144l18.6927,2.5642c0,0,6.2014-7.3773,8.6594-2.5677c2.366,4.8131,2.153,15.6081.014,21.7033Z"
            fill="#f4c2c9" id="ic_workbook-s-path2" />
        <path
            d="M88.2648,107.153L24.5546,121.798c-.6608.155-1.3456.178-2.0152.067-.6696-.11-1.3108-.351-1.8869-.71s-1.0758-.827-1.4704-1.38c-.3946-.552-.6763-1.176-.8289-1.837L0.290888,39.7021c-.155586-.6598-.179467-1.3438-.070277-2.0128.109191-.6691.349308-1.31.706596-1.886s.824723-1.076,1.375533-1.4712c.55081-.3951,1.17416-.6777,1.83435-.8315L67.8474,18.8558c.6597-.155,1.3436-.1783,2.0124-.0686s1.3094.3501,1.8851.7078c.5757.3576,1.0753.8252,1.47,1.3762.3947.5509.6769,1.1743.8303,1.8344L92.0048,100.937c.1788.655.223,1.338.1301,2.01-.0929.671-.321,1.317-.6706,1.898s-.8133,1.085-1.3633,1.482c-.5499.397-1.1745.678-1.8362.826Z"
            fill="#dbdde0" id="ic_workbook-s-path3" />
        <path
            d="M61.4337,41.3028L19.9578,50.8193c-.3233.0752-.6585.0848-.9855.0281-.3271-.0567-.6394-.1785-.9185-.3582s-.5193-.4136-.7063-.6879c-.187-.2742-.3171-.5832-.3824-.9087v0c-.0753-.3231-.085-.6579-.0285-.9848s.178-.6391.3573-.9182.4128-.5193.6867-.7065c.2738-.1871.5825-.3175.9076-.3832l41.476-9.5129c.323-.0753.6579-.085.9848-.0285s.639.1779.9181.3573c.2791.1793.5193.4128.7065.6867.1872.2738.3175.5825.3832.9076v0c.096.6471-.046,1.3071-.3996,1.8574-.3537.5504-.895.9538-1.5235,1.1353v0Z"
            fill="#e9990d" id="ic_workbook-s-path4" />
        <path d="M19.8516,61.8269L66.2433,51.1382" fill="none" id="ic_workbook-s-path5"
            stroke="#63737a" stroke-linecap="round" stroke-linejoin="round" stroke-width="5.43" />
        <path d="M21.668,69.6327L68.0597,58.9404" fill="none" id="ic_workbook-s-path6"
            stroke="#63737a" stroke-linecap="round" stroke-linejoin="round" stroke-width="5.43" />
        <path
            d="M49.353,100.417l-17.1025,3.956c-.323.075-.6579.085-.9848.028-.3269-.056-.6391-.178-.9181-.357s-.5193-.413-.7065-.687c-.1872-.273-.3175-.582-.3833-.907L25.3019,85.3542c-.0753-.3234-.0849-.6585-.0282-.9855.0567-.3271.1785-.6395.3582-.9186s.4136-.5193.6879-.7063.5832-.317.9087-.3824L44.331,78.4089c.3231-.0752.6579-.0849.9848-.0285.3269.0565.6391.178.9181.3573.2791.1794.5193.4129.7065.6867s.3175.5825.3833.9077l3.956,17.1027c.0915.6457-.0529,1.3028-.4069,1.8506-.3539.5478-.8935.9496-1.5198,1.1316Z"
            fill="#eea72b" id="ic_workbook-s-path7" />
        <path d="M53.6309,76.1531l17.4212-4.0623" fill="none" id="ic_workbook-s-path8"
            stroke="#63737a" stroke-linecap="round" stroke-linejoin="round" stroke-width="5.43" />
        <path d="M55.5547,84.5962l17.531-3.9561" fill="none" id="ic_workbook-s-path9"
            stroke="#63737a" stroke-linecap="round" stroke-linejoin="round" stroke-width="5.43" />
        <path d="M57.4775,93.1493l10.5824-2.4579" fill="none" id="ic_workbook-s-path10"
            stroke="#63737a" stroke-linecap="round" stroke-linejoin="round" stroke-width="5.43" />
        <path
            d="M97.1363,47.3982c0,0-2.6739,1.3883-7.7916,0-5.1176-1.3884-5.9853-2.674-11.3332-4.0623-5.3478-1.3884-12.7215.1062-14.0036,2.3516-1.282,2.2455,2.125,3.6338,6.7291,4.1686s6.7291,9.3004,14.1099,12.6119c12.2894,5.4541,23.1901-11.2236,12.2894-15.0698Z"
            fill="#f4c2c9" id="ic_workbook-s-path11" />
        <path
            d="M63.9972,45.6875c-1.2821,2.2454,2.125,3.6338,6.7291,4.1685s6.7291,9.3005,14.1098,12.6119c2.2692,1.0531,4.8155,1.3534,7.2674.8571"
            fill="none" id="ic_workbook-s-path12" stroke="#e26e85" stroke-linecap="round"
            stroke-linejoin="round" stroke-width="5.43" />
        <path
            d="M105.261,42.479c0,0-5.6664,3.6373-8.1243,4.9194c0,0,4.8093,4.7033,6.7293,13.1466c1.919,8.4434.428,12.5092.428,12.5092s6.308-.6446,9.407-2.8864c0,0,2.993-4.9194.535-14.5386s-8.975-13.1502-8.975-13.1502Z"
            fill="#fff" id="ic_workbook-s-path13" />
        <path
            d="M172.389,29.4384c-.978-3.2706-2.721-6.2617-5.083-8.7266s-5.276-4.3328-8.503-5.4498c-3.226-1.117-6.671-1.451-10.052-.9746-3.38.4765-6.599,1.7498-9.391,3.715-7.055,4.9158-14.432,9.7254-20.311,12.9342l-16.341,8.8718c0,0,9.3,9.1907,10.692,19.3482s-.322,13.4583-.322,13.4583s25.549-6.3077,48.102-17.3187c9.513-4.8096,14.323-15.7144,11.224-25.8542l-.015-.0036Z"
            fill="#6dafa7" id="ic_workbook-s-path14" />
        <path
            d="M110.924,64.8127c0-.2534-.076-.5009-.217-.7113-.142-.2104-.342-.3741-.576-.4706-.235-.0965-.492-.1214-.741-.0716-.248.0499-.476.1723-.655.3517-.179.1795-.301.4079-.35.6565s-.024.5062.073.7403.262.4341.473.5748c.21.1407.458.2158.711.2158.171.0065.341-.0223.499-.0847.159-.0623.303-.1568.424-.2776.12-.1207.214-.2651.276-.424s.09-.3289.083-.4993Z"
            fill="#22272e" id="ic_workbook-s-path15" />
    </g>
</svg>
